<mxfile host="app.diagrams.net" modified="2020-12-17T09:24:25.121Z" agent="5.0 (Macintosh; Intel Mac OS X 10_15_5) AppleWebKit/537.36 (KHTML, like Gecko) Chrome/86.0.4240.111 Safari/537.36" etag="MWadydGKhi7ebHvp5LpD" version="14.0.4" type="github">
  <diagram id="kgpKYQtTHZ0yAKxKKP6v" name="Page-1">
    <mxGraphModel dx="1434" dy="771" grid="1" gridSize="10" guides="1" tooltips="1" connect="1" arrows="1" fold="1" page="1" pageScale="1" pageWidth="850" pageHeight="1100" math="0" shadow="0">
      <root>
        <mxCell id="0" />
        <mxCell id="1" parent="0" />
        <mxCell id="3nuBFxr9cyL0pnOWT2aG-1" value="WmTextView" style="shape=umlLifeline;perimeter=lifelinePerimeter;container=1;collapsible=0;recursiveResize=0;rounded=0;shadow=0;strokeWidth=1;" parent="1" vertex="1">
          <mxGeometry x="120" y="80" width="100" height="510" as="geometry" />
        </mxCell>
        <mxCell id="3nuBFxr9cyL0pnOWT2aG-2" value="" style="points=[];perimeter=orthogonalPerimeter;rounded=0;shadow=0;strokeWidth=1;" parent="3nuBFxr9cyL0pnOWT2aG-1" vertex="1">
          <mxGeometry x="45" y="70" width="10" height="90" as="geometry" />
        </mxCell>
        <mxCell id="3nuBFxr9cyL0pnOWT2aG-3" value="setProvider" style="verticalAlign=bottom;startArrow=oval;endArrow=block;startSize=8;shadow=0;strokeWidth=1;" parent="3nuBFxr9cyL0pnOWT2aG-1" target="3nuBFxr9cyL0pnOWT2aG-2" edge="1">
          <mxGeometry relative="1" as="geometry">
            <mxPoint x="-15" y="70" as="sourcePoint" />
          </mxGeometry>
        </mxCell>
        <mxCell id="9H5KczidWVHuf00x9Seh-10" value="onActiveChanged" style="html=1;verticalAlign=bottom;startArrow=oval;startFill=1;endArrow=block;startSize=8;" edge="1" parent="3nuBFxr9cyL0pnOWT2aG-1" target="3nuBFxr9cyL0pnOWT2aG-5">
          <mxGeometry width="60" relative="1" as="geometry">
            <mxPoint x="60" y="140" as="sourcePoint" />
            <mxPoint x="120" y="140" as="targetPoint" />
          </mxGeometry>
        </mxCell>
        <mxCell id="9H5KczidWVHuf00x9Seh-11" value="setReceiver" style="html=1;verticalAlign=bottom;startArrow=oval;startFill=1;endArrow=block;startSize=8;" edge="1" parent="3nuBFxr9cyL0pnOWT2aG-1" target="3nuBFxr9cyL0pnOWT2aG-5">
          <mxGeometry width="60" relative="1" as="geometry">
            <mxPoint x="60" y="100" as="sourcePoint" />
            <mxPoint x="120" y="100" as="targetPoint" />
          </mxGeometry>
        </mxCell>
        <mxCell id="9H5KczidWVHuf00x9Seh-26" value="" style="html=1;points=[];perimeter=orthogonalPerimeter;" vertex="1" parent="3nuBFxr9cyL0pnOWT2aG-1">
          <mxGeometry x="45" y="270" width="10" height="80" as="geometry" />
        </mxCell>
        <mxCell id="9H5KczidWVHuf00x9Seh-27" value="" style="html=1;points=[];perimeter=orthogonalPerimeter;" vertex="1" parent="3nuBFxr9cyL0pnOWT2aG-1">
          <mxGeometry x="45" y="310" width="10" height="40" as="geometry" />
        </mxCell>
        <mxCell id="9H5KczidWVHuf00x9Seh-28" value="setText" style="edgeStyle=orthogonalEdgeStyle;html=1;align=left;spacingLeft=2;endArrow=block;rounded=0;" edge="1" target="9H5KczidWVHuf00x9Seh-26" parent="3nuBFxr9cyL0pnOWT2aG-1">
          <mxGeometry relative="1" as="geometry">
            <mxPoint x="50" y="290" as="sourcePoint" />
            <Array as="points">
              <mxPoint x="75" y="290" />
              <mxPoint x="75" y="310" />
            </Array>
          </mxGeometry>
        </mxCell>
        <mxCell id="3nuBFxr9cyL0pnOWT2aG-5" value="LocationProvider" style="shape=umlLifeline;perimeter=lifelinePerimeter;container=1;collapsible=0;recursiveResize=0;rounded=0;shadow=0;strokeWidth=1;" parent="1" vertex="1">
          <mxGeometry x="250" y="80" width="100" height="510" as="geometry" />
        </mxCell>
        <mxCell id="3nuBFxr9cyL0pnOWT2aG-6" value="" style="points=[];perimeter=orthogonalPerimeter;rounded=0;shadow=0;strokeWidth=1;" parent="3nuBFxr9cyL0pnOWT2aG-5" vertex="1">
          <mxGeometry x="45" y="70" width="10" height="90" as="geometry" />
        </mxCell>
        <mxCell id="9H5KczidWVHuf00x9Seh-37" value="getValue" style="html=1;verticalAlign=bottom;startArrow=oval;startFill=1;endArrow=block;startSize=8;" edge="1" parent="3nuBFxr9cyL0pnOWT2aG-5" target="9H5KczidWVHuf00x9Seh-12">
          <mxGeometry width="60" relative="1" as="geometry">
            <mxPoint x="60" y="140" as="sourcePoint" />
            <mxPoint x="120" y="140" as="targetPoint" />
          </mxGeometry>
        </mxCell>
        <mxCell id="9H5KczidWVHuf00x9Seh-17" value="" style="html=1;points=[];perimeter=orthogonalPerimeter;" vertex="1" parent="3nuBFxr9cyL0pnOWT2aG-5">
          <mxGeometry x="45" y="240" width="10" height="40" as="geometry" />
        </mxCell>
        <mxCell id="9H5KczidWVHuf00x9Seh-18" value="observe(owner, mObserver)&lt;br&gt;setLocation" style="edgeStyle=orthogonalEdgeStyle;html=1;align=left;spacingLeft=2;endArrow=block;rounded=0;entryX=1;entryY=0;" edge="1" target="9H5KczidWVHuf00x9Seh-17" parent="3nuBFxr9cyL0pnOWT2aG-5">
          <mxGeometry relative="1" as="geometry">
            <mxPoint x="50" y="220" as="sourcePoint" />
            <Array as="points">
              <mxPoint x="75" y="220" />
            </Array>
          </mxGeometry>
        </mxCell>
        <mxCell id="9H5KczidWVHuf00x9Seh-19" value="" style="html=1;points=[];perimeter=orthogonalPerimeter;" vertex="1" parent="3nuBFxr9cyL0pnOWT2aG-5">
          <mxGeometry x="45" y="270" width="10" height="40" as="geometry" />
        </mxCell>
        <mxCell id="9H5KczidWVHuf00x9Seh-20" value="setValue" style="edgeStyle=orthogonalEdgeStyle;html=1;align=left;spacingLeft=2;endArrow=block;rounded=0;" edge="1" target="9H5KczidWVHuf00x9Seh-17" parent="3nuBFxr9cyL0pnOWT2aG-5">
          <mxGeometry relative="1" as="geometry">
            <mxPoint x="50" y="250" as="sourcePoint" />
            <Array as="points">
              <mxPoint x="75" y="250" />
              <mxPoint x="75" y="260" />
            </Array>
          </mxGeometry>
        </mxCell>
        <mxCell id="9H5KczidWVHuf00x9Seh-12" value="LocationDataSource" style="shape=umlLifeline;perimeter=lifelinePerimeter;container=1;collapsible=0;recursiveResize=0;rounded=0;shadow=0;strokeWidth=1;" vertex="1" parent="1">
          <mxGeometry x="440" y="80" width="120" height="510" as="geometry" />
        </mxCell>
        <mxCell id="9H5KczidWVHuf00x9Seh-36" value="" style="html=1;points=[];perimeter=orthogonalPerimeter;" vertex="1" parent="9H5KczidWVHuf00x9Seh-12">
          <mxGeometry x="55" y="140" width="10" height="80" as="geometry" />
        </mxCell>
        <mxCell id="9H5KczidWVHuf00x9Seh-22" value="setValue" style="html=1;verticalAlign=bottom;startArrow=oval;startFill=1;endArrow=block;startSize=8;exitX=-0.1;exitY=0;exitDx=0;exitDy=0;exitPerimeter=0;" edge="1" parent="1" source="9H5KczidWVHuf00x9Seh-19" target="3nuBFxr9cyL0pnOWT2aG-1">
          <mxGeometry width="60" relative="1" as="geometry">
            <mxPoint x="430" y="340" as="sourcePoint" />
            <mxPoint x="370" y="340" as="targetPoint" />
            <Array as="points">
              <mxPoint x="240" y="350" />
            </Array>
          </mxGeometry>
        </mxCell>
        <mxCell id="9H5KczidWVHuf00x9Seh-38" value="value" style="html=1;verticalAlign=bottom;endArrow=open;dashed=1;endSize=8;entryX=0.53;entryY=0.412;entryDx=0;entryDy=0;entryPerimeter=0;" edge="1" parent="1" source="9H5KczidWVHuf00x9Seh-12" target="3nuBFxr9cyL0pnOWT2aG-5">
          <mxGeometry relative="1" as="geometry">
            <mxPoint x="430" y="290" as="sourcePoint" />
            <mxPoint x="350" y="290" as="targetPoint" />
            <Array as="points">
              <mxPoint x="420" y="288" />
            </Array>
          </mxGeometry>
        </mxCell>
        <mxCell id="9H5KczidWVHuf00x9Seh-40" value="LocationLiveData1" style="shape=umlLifeline;perimeter=lifelinePerimeter;container=1;collapsible=0;recursiveResize=0;rounded=0;shadow=0;strokeWidth=1;" vertex="1" parent="1">
          <mxGeometry x="600" y="80" width="120" height="510" as="geometry" />
        </mxCell>
        <mxCell id="9H5KczidWVHuf00x9Seh-42" value="" style="html=1;points=[];perimeter=orthogonalPerimeter;" vertex="1" parent="9H5KczidWVHuf00x9Seh-40">
          <mxGeometry x="55" y="105" width="10" height="40" as="geometry" />
        </mxCell>
        <mxCell id="9H5KczidWVHuf00x9Seh-43" value="onActive" style="edgeStyle=orthogonalEdgeStyle;html=1;align=left;spacingLeft=2;endArrow=block;rounded=0;entryX=1;entryY=0;" edge="1" target="9H5KczidWVHuf00x9Seh-42" parent="9H5KczidWVHuf00x9Seh-40">
          <mxGeometry relative="1" as="geometry">
            <mxPoint x="60" y="85" as="sourcePoint" />
            <Array as="points">
              <mxPoint x="85" y="85" />
            </Array>
          </mxGeometry>
        </mxCell>
        <mxCell id="9H5KczidWVHuf00x9Seh-47" value="observable" style="html=1;verticalAlign=bottom;startArrow=oval;startFill=1;endArrow=block;startSize=8;" edge="1" parent="9H5KczidWVHuf00x9Seh-40" target="9H5KczidWVHuf00x9Seh-44">
          <mxGeometry width="60" relative="1" as="geometry">
            <mxPoint x="70" y="124.5" as="sourcePoint" />
            <mxPoint x="130" y="124.5" as="targetPoint" />
          </mxGeometry>
        </mxCell>
        <mxCell id="9H5KczidWVHuf00x9Seh-51" value="" style="html=1;points=[];perimeter=orthogonalPerimeter;" vertex="1" parent="9H5KczidWVHuf00x9Seh-40">
          <mxGeometry x="55" y="240" width="10" height="60" as="geometry" />
        </mxCell>
        <mxCell id="9H5KczidWVHuf00x9Seh-52" value="observeForever(mLocationObserver)&lt;br&gt;&lt;br&gt;dealLocationResult" style="edgeStyle=orthogonalEdgeStyle;html=1;align=left;spacingLeft=2;endArrow=block;rounded=0;entryX=1;entryY=0;" edge="1" target="9H5KczidWVHuf00x9Seh-51" parent="9H5KczidWVHuf00x9Seh-40">
          <mxGeometry relative="1" as="geometry">
            <mxPoint x="60" y="200" as="sourcePoint" />
            <Array as="points">
              <mxPoint x="60" y="200" />
              <mxPoint x="85" y="200" />
              <mxPoint x="85" y="240" />
            </Array>
          </mxGeometry>
        </mxCell>
        <mxCell id="9H5KczidWVHuf00x9Seh-56" value="" style="html=1;points=[];perimeter=orthogonalPerimeter;" vertex="1" parent="9H5KczidWVHuf00x9Seh-40">
          <mxGeometry x="55" y="290" width="10" height="40" as="geometry" />
        </mxCell>
        <mxCell id="9H5KczidWVHuf00x9Seh-57" value="postValue" style="edgeStyle=orthogonalEdgeStyle;html=1;align=left;spacingLeft=2;endArrow=block;rounded=0;entryX=1;entryY=0;" edge="1" target="9H5KczidWVHuf00x9Seh-56" parent="9H5KczidWVHuf00x9Seh-40">
          <mxGeometry relative="1" as="geometry">
            <mxPoint x="60" y="270" as="sourcePoint" />
            <Array as="points">
              <mxPoint x="90" y="270" />
              <mxPoint x="90" y="290" />
            </Array>
          </mxGeometry>
        </mxCell>
        <mxCell id="9H5KczidWVHuf00x9Seh-44" value="LocationSceneImpl" style="shape=umlLifeline;perimeter=lifelinePerimeter;container=1;collapsible=0;recursiveResize=0;rounded=0;shadow=0;strokeWidth=1;" vertex="1" parent="1">
          <mxGeometry x="860" y="80" width="120" height="520" as="geometry" />
        </mxCell>
        <mxCell id="9H5KczidWVHuf00x9Seh-45" value="" style="html=1;points=[];perimeter=orthogonalPerimeter;" vertex="1" parent="9H5KczidWVHuf00x9Seh-44">
          <mxGeometry x="55" y="120" width="10" height="50" as="geometry" />
        </mxCell>
        <mxCell id="9H5KczidWVHuf00x9Seh-49" value="" style="html=1;points=[];perimeter=orthogonalPerimeter;" vertex="1" parent="9H5KczidWVHuf00x9Seh-44">
          <mxGeometry x="55" y="140" width="10" height="60" as="geometry" />
        </mxCell>
        <mxCell id="9H5KczidWVHuf00x9Seh-80" value="getLocationLiveData" style="html=1;verticalAlign=bottom;startArrow=oval;startFill=1;endArrow=block;startSize=8;dashed=1;" edge="1" parent="9H5KczidWVHuf00x9Seh-44" target="9H5KczidWVHuf00x9Seh-72">
          <mxGeometry width="60" relative="1" as="geometry">
            <mxPoint x="70" y="130" as="sourcePoint" />
            <mxPoint x="130" y="130" as="targetPoint" />
          </mxGeometry>
        </mxCell>
        <mxCell id="9H5KczidWVHuf00x9Seh-59" value="" style="edgeStyle=segmentEdgeStyle;endArrow=classic;html=1;exitX=0.492;exitY=0.626;exitDx=0;exitDy=0;exitPerimeter=0;dashed=1;" edge="1" parent="1" source="9H5KczidWVHuf00x9Seh-40" target="9H5KczidWVHuf00x9Seh-12">
          <mxGeometry width="50" height="50" relative="1" as="geometry">
            <mxPoint x="540" y="420" as="sourcePoint" />
            <mxPoint x="570" y="260" as="targetPoint" />
            <Array as="points">
              <mxPoint x="659" y="370" />
              <mxPoint x="590" y="370" />
              <mxPoint x="590" y="260" />
            </Array>
          </mxGeometry>
        </mxCell>
        <mxCell id="9H5KczidWVHuf00x9Seh-60" value="address" style="edgeLabel;html=1;align=center;verticalAlign=middle;resizable=0;points=[];" vertex="1" connectable="0" parent="9H5KczidWVHuf00x9Seh-59">
          <mxGeometry x="0.168" y="4" relative="1" as="geometry">
            <mxPoint as="offset" />
          </mxGeometry>
        </mxCell>
        <mxCell id="9H5KczidWVHuf00x9Seh-63" value="通知&lt;span style=&quot;text-align: left&quot;&gt;mObserver&lt;/span&gt;" style="edgeLabel;html=1;align=center;verticalAlign=middle;resizable=0;points=[];" vertex="1" connectable="0" parent="9H5KczidWVHuf00x9Seh-59">
          <mxGeometry x="0.7479" y="-2" relative="1" as="geometry">
            <mxPoint x="15.78" y="-8" as="offset" />
          </mxGeometry>
        </mxCell>
        <mxCell id="9H5KczidWVHuf00x9Seh-48" value="LiveData&amp;lt;Location&amp;gt;" style="html=1;verticalAlign=bottom;endArrow=open;dashed=1;endSize=8;entryX=0.517;entryY=0.376;entryDx=0;entryDy=0;entryPerimeter=0;" edge="1" parent="1" source="9H5KczidWVHuf00x9Seh-44" target="9H5KczidWVHuf00x9Seh-40">
          <mxGeometry relative="1" as="geometry">
            <mxPoint x="740" y="250" as="sourcePoint" />
            <mxPoint x="660" y="250" as="targetPoint" />
            <Array as="points">
              <mxPoint x="790" y="270" />
            </Array>
          </mxGeometry>
        </mxCell>
        <mxCell id="9H5KczidWVHuf00x9Seh-72" value="LocationLiveData2" style="shape=umlLifeline;perimeter=lifelinePerimeter;container=1;collapsible=0;recursiveResize=0;rounded=0;shadow=0;strokeWidth=1;" vertex="1" parent="1">
          <mxGeometry x="1080" y="80" width="120" height="520" as="geometry" />
        </mxCell>
        <mxCell id="9H5KczidWVHuf00x9Seh-73" value="" style="html=1;points=[];perimeter=orthogonalPerimeter;" vertex="1" parent="9H5KczidWVHuf00x9Seh-72">
          <mxGeometry x="55" y="120" width="10" height="70" as="geometry" />
        </mxCell>
        <mxCell id="9H5KczidWVHuf00x9Seh-85" value="" style="html=1;points=[];perimeter=orthogonalPerimeter;" vertex="1" parent="9H5KczidWVHuf00x9Seh-72">
          <mxGeometry x="55" y="260" width="10" height="60" as="geometry" />
        </mxCell>
        <mxCell id="9H5KczidWVHuf00x9Seh-86" value="onActive" style="edgeStyle=orthogonalEdgeStyle;html=1;align=left;spacingLeft=2;endArrow=block;rounded=0;entryX=1;entryY=0;dashed=1;" edge="1" target="9H5KczidWVHuf00x9Seh-85" parent="9H5KczidWVHuf00x9Seh-72">
          <mxGeometry relative="1" as="geometry">
            <mxPoint x="60" y="240" as="sourcePoint" />
            <Array as="points">
              <mxPoint x="85" y="240" />
            </Array>
          </mxGeometry>
        </mxCell>
        <mxCell id="9H5KczidWVHuf00x9Seh-92" value="observable" style="html=1;verticalAlign=bottom;startArrow=oval;startFill=1;endArrow=block;startSize=8;dashed=1;" edge="1" parent="9H5KczidWVHuf00x9Seh-72" target="9H5KczidWVHuf00x9Seh-87">
          <mxGeometry width="60" relative="1" as="geometry">
            <mxPoint x="70" y="280" as="sourcePoint" />
            <mxPoint x="130" y="280" as="targetPoint" />
          </mxGeometry>
        </mxCell>
        <mxCell id="9H5KczidWVHuf00x9Seh-96" value="" style="html=1;points=[];perimeter=orthogonalPerimeter;" vertex="1" parent="9H5KczidWVHuf00x9Seh-72">
          <mxGeometry x="55" y="400" width="10" height="40" as="geometry" />
        </mxCell>
        <mxCell id="9H5KczidWVHuf00x9Seh-97" value="当上面的LiveData数据变化时&lt;br&gt;mObserver接收到回调" style="edgeStyle=orthogonalEdgeStyle;html=1;align=left;spacingLeft=2;endArrow=block;rounded=0;entryX=1;entryY=0;dashed=1;" edge="1" target="9H5KczidWVHuf00x9Seh-96" parent="9H5KczidWVHuf00x9Seh-72">
          <mxGeometry relative="1" as="geometry">
            <mxPoint x="60" y="380" as="sourcePoint" />
            <Array as="points">
              <mxPoint x="85" y="380" />
            </Array>
          </mxGeometry>
        </mxCell>
        <mxCell id="9H5KczidWVHuf00x9Seh-98" value="" style="html=1;points=[];perimeter=orthogonalPerimeter;" vertex="1" parent="9H5KczidWVHuf00x9Seh-72">
          <mxGeometry x="55" y="450" width="10" height="40" as="geometry" />
        </mxCell>
        <mxCell id="9H5KczidWVHuf00x9Seh-99" value="&lt;span style=&quot;font-size: 11px&quot;&gt;postValue(newLocation)&lt;/span&gt;" style="edgeStyle=orthogonalEdgeStyle;html=1;align=left;spacingLeft=2;endArrow=block;rounded=0;entryX=1;entryY=0;dashed=1;" edge="1" target="9H5KczidWVHuf00x9Seh-98" parent="9H5KczidWVHuf00x9Seh-72">
          <mxGeometry relative="1" as="geometry">
            <mxPoint x="60" y="430" as="sourcePoint" />
            <Array as="points">
              <mxPoint x="85" y="430" />
            </Array>
          </mxGeometry>
        </mxCell>
        <mxCell id="9H5KczidWVHuf00x9Seh-81" value="mCoarseLocationLiveData" style="html=1;verticalAlign=bottom;endArrow=open;dashed=1;endSize=8;" edge="1" parent="1" source="9H5KczidWVHuf00x9Seh-72" target="9H5KczidWVHuf00x9Seh-44">
          <mxGeometry x="-0.0955" relative="1" as="geometry">
            <mxPoint x="1010" y="240" as="sourcePoint" />
            <mxPoint x="930" y="240" as="targetPoint" />
            <Array as="points">
              <mxPoint x="1040" y="270" />
            </Array>
            <mxPoint as="offset" />
          </mxGeometry>
        </mxCell>
        <mxCell id="9H5KczidWVHuf00x9Seh-82" value="mFineLocationLiveData" style="edgeLabel;html=1;align=center;verticalAlign=middle;resizable=0;points=[];" vertex="1" connectable="0" parent="9H5KczidWVHuf00x9Seh-81">
          <mxGeometry x="0.1981" relative="1" as="geometry">
            <mxPoint x="32.5" y="10" as="offset" />
          </mxGeometry>
        </mxCell>
        <mxCell id="9H5KczidWVHuf00x9Seh-87" value="LocationClient" style="shape=umlLifeline;perimeter=lifelinePerimeter;container=1;collapsible=0;recursiveResize=0;rounded=0;shadow=0;strokeWidth=1;" vertex="1" parent="1">
          <mxGeometry x="1300" y="75" width="120" height="520" as="geometry" />
        </mxCell>
        <mxCell id="9H5KczidWVHuf00x9Seh-89" value="" style="html=1;points=[];perimeter=orthogonalPerimeter;" vertex="1" parent="9H5KczidWVHuf00x9Seh-87">
          <mxGeometry x="55" y="285" width="10" height="40" as="geometry" />
        </mxCell>
        <mxCell id="9H5KczidWVHuf00x9Seh-94" value="LiveData&amp;lt;LocationResult&amp;gt;" style="html=1;verticalAlign=bottom;endArrow=open;dashed=1;endSize=8;" edge="1" parent="1" target="9H5KczidWVHuf00x9Seh-72">
          <mxGeometry relative="1" as="geometry">
            <mxPoint x="1350" y="390" as="sourcePoint" />
            <mxPoint x="1270" y="390" as="targetPoint" />
          </mxGeometry>
        </mxCell>
        <mxCell id="9H5KczidWVHuf00x9Seh-95" value="注册观察者mObserver到LiveData" style="text;html=1;align=center;verticalAlign=middle;resizable=0;points=[];autosize=1;" vertex="1" parent="1">
          <mxGeometry x="1150" y="390" width="190" height="20" as="geometry" />
        </mxCell>
        <mxCell id="9H5KczidWVHuf00x9Seh-100" value="" style="edgeStyle=segmentEdgeStyle;endArrow=classic;html=1;dashed=1;" edge="1" parent="1" source="9H5KczidWVHuf00x9Seh-98">
          <mxGeometry width="50" height="50" relative="1" as="geometry">
            <mxPoint x="1119.54" y="549.26" as="sourcePoint" />
            <mxPoint x="850" y="300" as="targetPoint" />
            <Array as="points">
              <mxPoint x="1051" y="530" />
              <mxPoint x="1051" y="350" />
              <mxPoint x="850" y="350" />
            </Array>
          </mxGeometry>
        </mxCell>
        <mxCell id="9H5KczidWVHuf00x9Seh-101" value="address" style="edgeLabel;html=1;align=center;verticalAlign=middle;resizable=0;points=[];" vertex="1" connectable="0" parent="9H5KczidWVHuf00x9Seh-100">
          <mxGeometry x="0.168" y="4" relative="1" as="geometry">
            <mxPoint as="offset" />
          </mxGeometry>
        </mxCell>
        <mxCell id="9H5KczidWVHuf00x9Seh-102" value="通知&lt;span style=&quot;text-align: left&quot;&gt;mLocationObserver&lt;/span&gt;" style="edgeLabel;html=1;align=center;verticalAlign=middle;resizable=0;points=[];" vertex="1" connectable="0" parent="9H5KczidWVHuf00x9Seh-100">
          <mxGeometry x="0.7479" y="-2" relative="1" as="geometry">
            <mxPoint x="38" y="-8" as="offset" />
          </mxGeometry>
        </mxCell>
        <mxCell id="9H5KczidWVHuf00x9Seh-106" value="BdLocationClient&#xa;GdLocationClient" style="shape=umlLifeline;perimeter=lifelinePerimeter;container=1;collapsible=0;recursiveResize=0;rounded=0;shadow=0;strokeWidth=1;" vertex="1" parent="1">
          <mxGeometry x="1470" y="75" width="120" height="520" as="geometry" />
        </mxCell>
        <mxCell id="9H5KczidWVHuf00x9Seh-110" value="" style="html=1;points=[];perimeter=orthogonalPerimeter;" vertex="1" parent="9H5KczidWVHuf00x9Seh-106">
          <mxGeometry x="55" y="365" width="10" height="40" as="geometry" />
        </mxCell>
        <mxCell id="9H5KczidWVHuf00x9Seh-112" value="发起定位&lt;br&gt;locationClient.locate()" style="html=1;verticalAlign=bottom;startArrow=diamond;startFill=0;endArrow=block;startSize=8;entryX=0;entryY=-0.1;entryDx=0;entryDy=0;entryPerimeter=0;" edge="1" parent="9H5KczidWVHuf00x9Seh-106" target="9H5KczidWVHuf00x9Seh-110">
          <mxGeometry x="-1" y="-6" width="60" relative="1" as="geometry">
            <mxPoint x="150" y="361" as="sourcePoint" />
            <mxPoint x="140" y="315" as="targetPoint" />
            <mxPoint as="offset" />
          </mxGeometry>
        </mxCell>
        <mxCell id="9H5KczidWVHuf00x9Seh-113" value="" style="html=1;points=[];perimeter=orthogonalPerimeter;" vertex="1" parent="9H5KczidWVHuf00x9Seh-106">
          <mxGeometry x="55" y="405" width="10" height="40" as="geometry" />
        </mxCell>
        <mxCell id="9H5KczidWVHuf00x9Seh-114" value="start()" style="edgeStyle=orthogonalEdgeStyle;html=1;align=left;spacingLeft=2;endArrow=block;rounded=0;entryX=1;entryY=0;dashed=1;" edge="1" target="9H5KczidWVHuf00x9Seh-113" parent="9H5KczidWVHuf00x9Seh-106">
          <mxGeometry relative="1" as="geometry">
            <mxPoint x="60" y="385" as="sourcePoint" />
            <Array as="points">
              <mxPoint x="85" y="385" />
            </Array>
          </mxGeometry>
        </mxCell>
        <mxCell id="9H5KczidWVHuf00x9Seh-115" value="" style="html=1;points=[];perimeter=orthogonalPerimeter;" vertex="1" parent="9H5KczidWVHuf00x9Seh-106">
          <mxGeometry x="55" y="445" width="10" height="40" as="geometry" />
        </mxCell>
        <mxCell id="9H5KczidWVHuf00x9Seh-116" value="mLocationLiveData.value" style="edgeStyle=orthogonalEdgeStyle;html=1;align=left;spacingLeft=2;endArrow=block;rounded=0;entryX=1;entryY=0;dashed=1;" edge="1" target="9H5KczidWVHuf00x9Seh-115" parent="9H5KczidWVHuf00x9Seh-106">
          <mxGeometry relative="1" as="geometry">
            <mxPoint x="60" y="425" as="sourcePoint" />
            <Array as="points">
              <mxPoint x="85" y="425" />
            </Array>
          </mxGeometry>
        </mxCell>
        <mxCell id="9H5KczidWVHuf00x9Seh-109" value="mLocationLiveData" style="html=1;verticalAlign=bottom;endArrow=open;dashed=1;endSize=8;" edge="1" parent="1" target="9H5KczidWVHuf00x9Seh-87">
          <mxGeometry relative="1" as="geometry">
            <mxPoint x="1520" y="390" as="sourcePoint" />
            <mxPoint x="1440" y="390" as="targetPoint" />
          </mxGeometry>
        </mxCell>
        <mxCell id="9H5KczidWVHuf00x9Seh-117" value="" style="edgeStyle=segmentEdgeStyle;endArrow=classic;html=1;dashed=1;exitX=1.2;exitY=0.075;exitDx=0;exitDy=0;exitPerimeter=0;" edge="1" parent="1" source="9H5KczidWVHuf00x9Seh-115">
          <mxGeometry width="50" height="50" relative="1" as="geometry">
            <mxPoint x="1530" y="630" as="sourcePoint" />
            <mxPoint x="1330" y="460" as="targetPoint" />
            <Array as="points">
              <mxPoint x="1530" y="523" />
              <mxPoint x="1530" y="520" />
              <mxPoint x="1400" y="520" />
              <mxPoint x="1400" y="460" />
            </Array>
          </mxGeometry>
        </mxCell>
        <mxCell id="9H5KczidWVHuf00x9Seh-118" value="address" style="edgeLabel;html=1;align=center;verticalAlign=middle;resizable=0;points=[];" vertex="1" connectable="0" parent="9H5KczidWVHuf00x9Seh-117">
          <mxGeometry x="0.168" y="4" relative="1" as="geometry">
            <mxPoint as="offset" />
          </mxGeometry>
        </mxCell>
        <mxCell id="9H5KczidWVHuf00x9Seh-119" value="通知&lt;span style=&quot;text-align: left&quot;&gt;mObserver&lt;/span&gt;" style="edgeLabel;html=1;align=center;verticalAlign=middle;resizable=0;points=[];" vertex="1" connectable="0" parent="9H5KczidWVHuf00x9Seh-117">
          <mxGeometry x="0.7479" y="-2" relative="1" as="geometry">
            <mxPoint x="38" y="-8" as="offset" />
          </mxGeometry>
        </mxCell>
      </root>
    </mxGraphModel>
  </diagram>
</mxfile>
